<?xml version="1.0" standalone="no"?>
<!DOCTYPE svg PUBLIC "-//W3C//DTD SVG 20010904//EN"
 "http://www.w3.org/TR/2001/REC-SVG-20010904/DTD/svg10.dtd">
<svg version="1.0" xmlns="http://www.w3.org/2000/svg"
 width="512.000000pt" height="512.000000pt" viewBox="0 0 512.000000 512.000000"
 preserveAspectRatio="xMidYMid meet">
<metadata>
Created by potrace 1.11, written by Peter Selinger 2001-2013
</metadata>
<g transform="translate(0.000000,512.000000) scale(0.100000,-0.100000)"
fill="#000000" stroke="none">
<path d="M1850 4165 c-608 -102 -1069 -583 -1151 -1200 -11 -86 -7 -336 7
-396 5 -25 3 -26 -83 -47 -240 -59 -434 -213 -538 -427 -66 -135 -79 -196 -79
-355 0 -158 13 -220 79 -355 102 -211 301 -371 529 -425 65 -16 126 -21 253
-23 l167 -2 295 780 c163 429 300 786 304 793 12 18 427 18 427 0 0 -7 -133
-362 -294 -788 -162 -426 -292 -778 -289 -782 2 -5 208 -8 457 -8 351 0 456 3
463 12 5 7 218 563 472 1235 l462 1222 -41 73 c-95 167 -230 322 -379 433
-166 125 -399 225 -600 259 -113 19 -352 20 -461 1z m890 -1649 c0 -2 -72
-194 -160 -427 -88 -232 -160 -424 -160 -426 0 -1 -98 -3 -219 -3 l-218 0 153
403 c83 221 157 414 163 430 l11 27 215 0 c118 0 215 -2 215 -4z"/>
<path d="M3744 3399 c-10 -12 -934 -2442 -934 -2455 0 -2 269 -4 598 -4 655 0
685 2 865 61 306 100 583 344 722 636 279 583 70 1269 -487 1604 -94 57 -205
102 -338 136 -118 31 -407 46 -426 22z"/>
</g>
</svg>
